<svg width="32" height="32" viewBox="0 0 32 32" fill="none" xmlns="http://www.w3.org/2000/svg">
<path d="M29.1426 16.6466L25.5306 10.6266C25.052 9.82931 24.176 9.33331 23.2453 9.33331H20V6.66665C20 5.92931 19.404 5.33331 18.6666 5.33331H5.33329C3.86263 5.33331 2.66663 6.52931 2.66663 7.99998V21.3333C2.66663 22.328 3.22129 23.188 4.03063 23.6453C4.19596 26.0706 6.19996 28 8.66663 28C11.012 28 12.9386 26.2546 13.2653 24H17.4013C17.728 26.2546 19.6546 28 22 28C24.3453 28 26.272 26.2546 26.5986 24H26.6666C28.1373 24 29.3333 22.804 29.3333 21.3333V17.3333C29.3333 17.0906 29.268 16.8546 29.1426 16.6466ZM8.66663 25.3333C7.56396 25.3333 6.66663 24.436 6.66663 23.3333C6.66663 22.2306 7.56396 21.3333 8.66663 21.3333C9.76929 21.3333 10.6666 22.2306 10.6666 23.3333C10.6666 24.436 9.76929 25.3333 8.66663 25.3333ZM16 14.6666H13.3333V17.3333H10.6666V14.6666H7.99996V12H10.6666V9.33331H13.3333V12H16V14.6666ZM22 25.3333C20.8973 25.3333 20 24.436 20 23.3333C20 22.2306 20.8973 21.3333 22 21.3333C23.1026 21.3333 24 22.2306 24 23.3333C24 24.436 23.1026 25.3333 22 25.3333ZM20 16V12H23.2453L25.6453 16H20Z" fill="white"/>
</svg>
