<svg width="24" height="28" viewBox="0 0 24 28" fill="none" xmlns="http://www.w3.org/2000/svg">
<path d="M21.3333 16.1146V11.3333C21.3333 7.04396 18.42 3.43063 14.4733 2.34396C14.0827 1.35996 13.128 0.666626 12 0.666626C10.872 0.666626 9.91733 1.35996 9.52667 2.34396C5.58 3.43196 2.66667 7.04396 2.66667 11.3333V16.1146L0.390667 18.3906C0.14 18.64 0 18.9786 0 19.3333V22C0 22.7373 0.596 23.3333 1.33333 23.3333H22.6667C23.404 23.3333 24 22.7373 24 22V19.3333C24 18.9786 23.86 18.64 23.6093 18.3906L21.3333 16.1146ZM21.3333 20.6666H2.66667V19.8853L4.94267 17.6093C5.19333 17.36 5.33333 17.0213 5.33333 16.6666V11.3333C5.33333 7.65729 8.324 4.66663 12 4.66663C15.676 4.66663 18.6667 7.65729 18.6667 11.3333V16.6666C18.6667 17.0213 18.8067 17.36 19.0573 17.6093L21.3333 19.8853V20.6666ZM12 27.3333C13.748 27.3333 15.2093 26.2213 15.7573 24.6666H8.24267C8.79067 26.2213 10.252 27.3333 12 27.3333Z" fill="#757575"/>
</svg>
