<svg width="28" height="23" viewBox="0 0 28 23" fill="none" xmlns="http://www.w3.org/2000/svg">
<path d="M27.1426 11.6467L23.5306 5.62671C23.052 4.82937 22.176 4.33337 21.2453 4.33337H18V1.66671C18 0.929374 17.404 0.333374 16.6666 0.333374H3.33329C1.86263 0.333374 0.666626 1.52937 0.666626 3.00004V16.3334C0.666626 17.328 1.22129 18.188 2.03063 18.6454C2.19596 21.0707 4.19996 23 6.66663 23C9.01196 23 10.9386 21.2547 11.2653 19H15.4013C15.728 21.2547 17.6546 23 20 23C22.3453 23 24.272 21.2547 24.5986 19H24.6666C26.1373 19 27.3333 17.804 27.3333 16.3334V12.3334C27.3333 12.0907 27.268 11.8547 27.1426 11.6467ZM6.66663 20.3334C5.56396 20.3334 4.66663 19.436 4.66663 18.3334C4.66663 17.2307 5.56396 16.3334 6.66663 16.3334C7.76929 16.3334 8.66663 17.2307 8.66663 18.3334C8.66663 19.436 7.76929 20.3334 6.66663 20.3334ZM14 9.66671H11.3333V12.3334H8.66663V9.66671H5.99996V7.00004H8.66663V4.33337H11.3333V7.00004H14V9.66671ZM20 20.3334C18.8973 20.3334 18 19.436 18 18.3334C18 17.2307 18.8973 16.3334 20 16.3334C21.1026 16.3334 22 17.2307 22 18.3334C22 19.436 21.1026 20.3334 20 20.3334ZM18 11V7.00004H21.2453L23.6453 11H18Z" fill="white"/>
</svg>
